<svg id="visual" viewBox="0 0 900 600" width="900" height="600" xmlns="http://www.w3.org/2000/svg" xmlns:xlink="http://www.w3.org/1999/xlink" version="1.1"><rect x="0" y="0" width="900" height="600" fill="#2F3061"></rect><path d="M0 299L150 299L150 252L300 252L300 255L450 255L450 270L600 270L600 284L750 284L750 251L900 251L900 276L900 601L900 601L750 601L750 601L600 601L600 601L450 601L450 601L300 601L300 601L150 601L150 601L0 601Z" fill="#fa824c"></path><path d="M0 295L150 295L150 355L300 355L300 307L450 307L450 325L600 325L600 340L750 340L750 357L900 357L900 333L900 601L900 601L750 601L750 601L600 601L600 601L450 601L450 601L300 601L300 601L150 601L150 601L0 601Z" fill="#f66d4a"></path><path d="M0 370L150 370L150 405L300 405L300 395L450 395L450 376L600 376L600 369L750 369L750 380L900 380L900 394L900 601L900 601L750 601L750 601L600 601L600 601L450 601L450 601L300 601L300 601L150 601L150 601L0 601Z" fill="#f0574a"></path><path d="M0 482L150 482L150 451L300 451L300 467L450 467L450 459L600 459L600 438L750 438L750 455L900 455L900 435L900 601L900 601L750 601L750 601L600 601L600 601L450 601L450 601L300 601L300 601L150 601L150 601L0 601Z" fill="#e93d4c"></path><path d="M0 520L150 520L150 517L300 517L300 498L450 498L450 502L600 502L600 507L750 507L750 523L900 523L900 519L900 601L900 601L750 601L750 601L600 601L600 601L450 601L450 601L300 601L300 601L150 601L150 601L0 601Z" fill="#e01a4f"></path></svg>